PathFileType	4	(X/Y/Z)	..\data\2015002\dynamic\2015002_C4_04.trc
DataRate	CameraRate	NumFrames	NumMarkers	Units	OrigDataRate	OrigDataStartFrame	OrigNumFrames
100.000000	100.000000	4	52	mm	100.000000	147	168
Frame#	Time	L_IAS			L_IPS			R_IPS			R_IAS			L_FTC			L_FLE			L_FME			L_FAX			L_TTC			L_FAL			L_TAM			L_FCC			L_FM1			L_FM2			L_FM5			R_FTC			R_FLE			R_FME			R_FAX			R_TTC			R_FAL			R_TAM			R_FCC			R_FM1			R_FM2			R_FM5			CV7			TV10			SXS			SJN			L_SIA			L_SRS			L_SAA			L_SAE			L_HLE			L_HME			L_UOA			L_RSP			L_UHE			L_HM2			L_HM5			R_SIA			R_SRS			R_SAA			R_SAE			R_HLE			R_HME			R_UOA			R_RSP			R_UHE			R_HM2			R_HM5			
		X1	Y1	Z1	X2	Y2	Z2	X3	Y3	Z3	X4	Y4	Z4	X5	Y5	Z5	X6	Y6	Z6	X7	Y7	Z7	X8	Y8	Z8	X9	Y9	Z9	X10	Y10	Z10	X11	Y11	Z11	X12	Y12	Z12	X13	Y13	Z13	X14	Y14	Z14	X15	Y15	Z15	X16	Y16	Z16	X17	Y17	Z17	X18	Y18	Z18	X19	Y19	Z19	X20	Y20	Z20	X21	Y21	Z21	X22	Y22	Z22	X23	Y23	Z23	X24	Y24	Z24	X25	Y25	Z25	X26	Y26	Z26	X27	Y27	Z27	X28	Y28	Z28	X29	Y29	Z29	X30	Y30	Z30	X31	Y31	Z31	X32	Y32	Z32	X33	Y33	Z33	X34	Y34	Z34	X35	Y35	Z35	X36	Y36	Z36	X37	Y37	Z37	X38	Y38	Z38	X39	Y39	Z39	X40	Y40	Z40	X41	Y41	Z41	X42	Y42	Z42	X43	Y43	Z43	X44	Y44	Z44	X45	Y45	Z45	X46	Y46	Z46	X47	Y47	Z47	X48	Y48	Z48	X49	Y49	Z49	X50	Y50	Z50	X51	Y51	Z51	X52	Y52	Z52	

148	1.47	1555.499633789063	985.4177246093752	-352.9359130859376	1372.66552734375	990.2248535156252	-251.5068969726563	1382.244506835938	984.7978515625002	-151.6841583251953	1575.539794921875	978.8287353515627	-100.7529525756836	1477.48779296875	903.2561645507815	-414.0355529785157	1488.15576171875	476.0041503906251	-355.7075805664063	1495.942504882813	483.5301513671876	-221.5367126464844	1459.883422851563	415.0398254394532	-346.5158996582032	1525.75146484375	402.4011535644532	-293.0304260253907	1406.19580078125	66.57176971435548	-270.4082946777344	1437.318237304688	88.72445678710939	-184.6761779785157	1353.59423828125	19.10726928710938	-197.2705841064454	1563.843994140625	17.55536842346192	-199.7520904541016	1562.421508789063	35.51300430297852	-260.4005737304688	1509.635864257813	18.68741035461426	-314.6491088867188	1530.330810546875	880.099792480469	-32.58746337890626	1656.157836914063	490.5235290527345	-29.76968574523926	1694.584716796875	482.4060974121095	-157.9378967285157	1619.896728515625	450.9987182617189	-33.0179672241211	1687.085083007813	411.834442138672	-75.39914703369142	1408.664794921875	173.779769897461	-87.40768432617189	1461.00634765625	165.5256652832032	-166.0626220703125	1354.029052734375	150.7222747802735	-158.05224609375	1529.707885742188	42.79299545288087	-144.0162811279297	1536.371459960938	65.65142059326173	-89.88721466064455	1472.606811523438	71.65403747558595	-39.00265884399415	1453.5322265625	1476.21484375	-231.9704284667969	1363.673217773438	1226.309692382813	-211.0559692382813	1611.4482421875	1172.130493164063	-220.3587188720704	1571.116088867188	1376.629638671875	-229.0211334228516	1354.543090820313	1250.9970703125	-329.9556884765626	1388.703735351563	1405.025024414063	-311.1923828125001	1437.967041015625	1405.453369140625	-403.6188049316407	1488.846923828125	1393.30419921875	-434.750213623047	1457.316162109375	1083.004028320313	-482.1535949707032	1419.556396484375	1069.885009765625	-406.2599182128907	1424.127807617188	1046.371337890625	-473.8658447265626	1583.386474609375	852.733093261719	-451.4830627441407	1532.082885742188	846.0240478515627	-511.1040039062501	1620.366088867188	757.5470581054689	-453.8579711914064	1534.220092773438	761.2424316406251	-514.6866455078126	1362.546142578125	1255.609130859375	-96.95631408691409	1397.980224609375	1407.376586914063	-119.9881286621094	1456.657958984375	1415.238159179688	-42.06369018554688	1500.2001953125	1412.24755859375	-20.09446334838868	1464.472534179688	1104.846069335938	62.7776565551758	1422.78369140625	1089.120849609375	-19.78460884094239	1416.576538085938	1060.6123046875	42.74024963378907	1562.357666015625	860.5264892578127	14.15288257598877	1525.816162109375	860.4379882812502	82.69944763183595	1600.48193359375	764.3447875976564	28.03309440612794	1520.8251953125	781.284118652344	95.70853424072267	
149	1.48	1566.004638671875	984.3150634765627	-354.1012268066407	1383.826538085938	989.6436157226565	-251.4350738525391	1393.5224609375	984.0742797851565	-151.7788238525391	1587.058471679688	978.3245849609377	-102.0361480712891	1487.3154296875	902.3359375000002	-414.5653686523439	1491.5078125	475.4393920898439	-355.4354248046876	1499.425048828125	483.1498107910157	-221.2799682617188	1462.571899414063	415.0007324218751	-346.1757507324219	1528.32568359375	401.649139404297	-292.7667236328126	1406.327392578125	66.80807495117189	-270.1477966308594	1437.59521484375	88.68032836914064	-184.4284973144532	1353.513916015625	19.37705993652344	-197.0620269775391	1563.963134765625	17.5516529083252	-199.8271484375001	1562.515869140625	35.46360778808594	-260.4201354980469	1509.619140625	18.70224952697754	-314.6307373046876	1543.379272460938	880.5438232421877	-33.36083984375001	1675.282470703125	492.2798461914064	-31.67083930969239	1712.505737304688	484.8959045410157	-159.8561706542969	1640.841186523438	450.3860168457032	-34.55785369873048	1709.02880859375	414.2427368164064	-77.35153198242189	1444.005493164063	161.4733428955078	-88.33214569091798	1496.641967773438	156.6888885498047	-167.1739196777344	1390.409423828125	135.6763763427735	-158.7420806884766	1573.05517578125	38.30286026000977	-145.6330261230469	1578.166870117188	61.10759735107423	-91.52151489257814	1514.177612304688	63.37547683715822	-40.34250259399415	1465.175170898438	1475.61328125	-232.1188507080079	1374.8037109375	1226.008666992188	-211.9218139648438	1622.59912109375	1171.324951171875	-221.2284240722657	1582.6357421875	1375.933471679688	-229.0871276855469	1366.285888671875	1250.807006835938	-330.9899902343751	1400.366943359375	1404.698852539063	-311.6776428222657	1449.94580078125	1405.265991210938	-404.0032348632814	1501.154663085938	1393.45263671875	-434.8397216796876	1475.63330078125	1083.1689453125	-485.1531982421876	1436.279541015625	1068.830200195313	-409.8931884765626	1443.031127929688	1045.701538085938	-477.7023010253907	1606.174194335938	855.6257324218752	-452.6227416992189	1556.501342773438	848.0863037109377	-513.6608886718751	1645.430786132813	761.3802490234376	-454.6184997558595	1560.726806640625	763.4564208984376	-517.8361816406251	1373.656372070313	1254.620727539063	-97.97968292236331	1409.31640625	1406.569946289063	-120.5519638061524	1467.680053710938	1414.198486328125	-42.50097274780274	1510.948852539063	1410.975219726563	-20.18783569335938	1470.901611328125	1104.156127929688	61.7867889404297	1430.214965820313	1089.0146484375	-21.03608894348145	1422.598876953125	1061.013671875	41.42656326293946	1564.1708984375	857.4107666015627	16.64664268493653	1526.659301757813	858.7857055664065	84.4735794067383	1600.125244140625	760.7361450195314	32.05615615844727	1519.724365234375	779.9671630859377	98.09747314453128	
150	1.49	1576.638793945313	983.0108032226565	-355.0967407226563	1395.017700195313	988.9187011718752	-251.3539276123047	1404.810668945313	983.1701660156252	-151.8746948242188	1598.581787109375	977.5668945312502	-103.102767944336	1497.259643554688	901.3281250000002	-415.0355834960939	1495.006713867188	474.8428344726564	-355.1438598632813	1503.05224609375	482.7357482910157	-221.0324249267579	1465.399291992188	414.9291381835939	-345.8251647949219	1531.021728515625	400.8414916992189	-292.5173339843751	1406.457275390625	67.05236053466798	-269.8752441406251	1437.870971679688	88.6392288208008	-184.1518096923828	1353.431762695313	19.67163467407227	-196.8207550048829	1564.081176757813	17.54269218444825	-199.9063262939454	1562.602783203125	35.39081573486329	-260.4558410644532	1509.592163085938	18.68671798706055	-314.6201171875001	1556.204711914063	880.6741943359377	-34.12514877319337	1693.517700195313	493.6202087402345	-33.75646591186524	1729.55810546875	486.8151855468751	-161.9053344726563	1660.96337890625	449.4238281250001	-36.25281524658204	1730.207763671875	416.3949584960939	-79.3826141357422	1480.2177734375	149.252685546875	-89.39328002929689	1533.14892578125	147.938217163086	-168.3662109375	1428.1044921875	120.6222915649414	-159.7062377929688	1616.871337890625	34.23041534423829	-146.9835052490235	1620.403442382813	57.01235961914064	-92.91928100585939	1556.312255859375	55.60087203979494	-41.58452224731446	1476.866577148438	1474.811645507813	-232.2100982666016	1385.965698242188	1225.540893554688	-212.6907806396485	1633.850463867188	1170.272216796875	-222.0515441894532	1594.2109375	1375.035766601563	-229.1269989013672	1378.068725585938	1250.442260742188	-331.9328002929688	1412.07421875	1404.189086914063	-312.0882263183594	1461.94189453125	1404.899169921875	-404.3126525878907	1513.46435546875	1393.401245117188	-434.8717651367189	1493.793212890625	1083.2900390625	-488.0278320312501	1453.038330078125	1067.714477539063	-413.3944091796876	1461.83935546875	1044.997314453125	-481.3858337402345	1628.85498046875	858.5985107421877	-453.7638549804689	1580.734497070313	850.248962402344	-516.0571289062501	1670.45751953125	765.3905639648439	-455.4194641113282	1587.09130859375	765.8163452148439	-520.7579345703126	1384.821166992188	1253.467651367188	-98.91892242431643	1420.755981445313	1405.570068359375	-121.027328491211	1478.867065429688	1412.940795898438	-42.86890411376954	1521.87158203125	1409.487548828125	-20.25941848754883	1477.491088867188	1103.329467773438	60.79398727416994	1437.799194335938	1088.747924804688	-22.26469421386719	1428.81884765625	1061.262451171875	40.11482238769532	1566.29150390625	854.3901977539065	19.03856277465821	1527.722412109375	857.1758422851565	86.12705230712892	1599.9580078125	757.2371215820314	35.94372940063477	1518.8359375	778.7406005859377	100.2855224609375	
151	1.5	1587.421997070313	981.5352172851565	-355.9207153320313	1406.25537109375	988.0546875000002	-251.2782440185547	1416.134643554688	982.1021118164065	-151.9778289794922	1610.135375976563	976.5752563476565	-103.9557495117188	1507.318969726563	900.2432250976565	-415.4517822265626	1498.671630859375	474.2192993164064	-354.8465881347657	1506.856689453125	482.2838439941407	-220.8060607910157	1468.386840820313	414.8264465332032	-345.4744567871094	1533.86181640625	399.9790344238282	-292.2936096191407	1406.59814453125	67.31257629394533	-269.5827636718751	1438.168579101563	88.60995483398439	-183.8461151123047	1353.383178710938	20.00256729125977	-196.5368652343751	1564.196411132813	17.52158355712891	-199.9837799072266	1562.685302734375	35.29184341430665	-260.5072021484376	1509.554809570313	18.64434432983399	-314.6159667968751	1568.783081054688	880.4797973632815	-34.87364959716798	1710.815063476563	494.4884033203126	-36.00526809692384	1745.736083984375	488.1242980957032	-164.0894622802735	1680.223022460938	448.098358154297	-38.1233253479004	1750.568725585938	418.2862243652345	-81.49112701416017	1517.286254882813	137.3536682128907	-90.56966400146486	1570.4833984375	139.4923553466797	-169.6318359375	1467.10888671875	105.8234024047852	-160.9320373535157	1661.0751953125	30.80317687988282	-148.0630645751953	1663.000122070313	53.58819580078126	-94.07415008544923	1598.945190429688	48.53973770141603	-42.71274948120118	1488.615844726563	1473.81884765625	-232.2418670654297	1397.1806640625	1224.900146484375	-213.3467407226563	1645.207275390625	1168.991088867188	-222.7962188720704	1605.852661132813	1373.943237304688	-229.1351776123047	1389.907592773438	1249.907104492188	-332.7825317382813	1423.839965820313	1403.500732421875	-312.4276428222657	1473.978759765625	1404.358642578125	-404.5536499023439	1525.806030273438	1393.149047851563	-434.8435058593751	1511.767333984375	1083.365844726563	-490.7659912109376	1469.8271484375	1066.541381835938	-416.739959716797	1480.52197265625	1044.25537109375	-484.8963317871095	1651.398559570313	861.6474609375002	-454.9127502441407	1604.726684570313	852.495788574219	-518.2834472656251	1695.414184570313	769.5823974609377	-456.2783508300782	1613.257080078125	768.3084106445315	-523.4370117187501	1396.045654296875	1252.172729492188	-99.7748718261719	1432.30615234375	1404.38720703125	-121.4154739379883	1490.221069335938	1411.480346679688	-43.16908264160157	1532.971435546875	1407.813110351563	-20.30388450622559	1484.267944335938	1102.382080078125	59.81575012207033	1445.553466796875	1088.337890625	-23.45644760131836	1435.258422851563	1061.366821289063	38.82017898559571	1568.745727539063	851.470397949219	21.30508995056153	1529.06298828125	855.6130371093752	87.6491165161133	1600.017822265625	753.8490600585939	39.6500473022461	1518.222290039063	777.607360839844	102.263412475586	
